<mxfile host="app.diagrams.net" agent="Mozilla/5.0 (Windows NT 10.0; Win64; x64) AppleWebKit/537.36 (KHTML, like Gecko) Chrome/134.0.0.0 Safari/537.36" version="26.2.9">
  <diagram name="Page-1" id="2DfoEZhMG623mxN_82BM">
    <mxGraphModel dx="1455" dy="730" grid="0" gridSize="10" guides="1" tooltips="1" connect="1" arrows="1" fold="1" page="0" pageScale="1" pageWidth="850" pageHeight="1100" math="0" shadow="0">
      <root>
        <mxCell id="0" />
        <mxCell id="1" parent="0" />
        <mxCell id="OZjv875h6kdG-M16T15z-1" value="" style="edgeStyle=orthogonalEdgeStyle;rounded=0;orthogonalLoop=1;jettySize=auto;html=1;entryX=0;entryY=0.5;entryDx=0;entryDy=0;" parent="1" target="OZjv875h6kdG-M16T15z-4" edge="1">
          <mxGeometry relative="1" as="geometry">
            <mxPoint x="162.99999999999994" y="47.29803282001941" as="sourcePoint" />
            <mxPoint x="237.04248171318517" y="47.29803282001941" as="targetPoint" />
            <Array as="points">
              <mxPoint x="163" y="47" />
            </Array>
          </mxGeometry>
        </mxCell>
        <mxCell id="OZjv875h6kdG-M16T15z-2" value="&lt;b&gt;MASTER INIT:&lt;/b&gt;&lt;div&gt;P1.4-1.7&amp;nbsp; &amp;nbsp; &amp;nbsp; &amp;nbsp; &amp;nbsp; keypad in&lt;/div&gt;&lt;div&gt;P2.0-2.3&amp;nbsp; &amp;nbsp; &amp;nbsp; &amp;nbsp; keypad out&lt;/div&gt;&lt;div&gt;&lt;div&gt;P1.3&amp;nbsp; &amp;nbsp; &amp;nbsp; &amp;nbsp; &amp;nbsp; &amp;nbsp; &amp;nbsp; &amp;nbsp; &amp;nbsp; &amp;nbsp; &amp;nbsp;lcd scl&lt;/div&gt;&lt;/div&gt;&lt;div&gt;P1.2&amp;nbsp; &amp;nbsp; &amp;nbsp; &amp;nbsp; &amp;nbsp; &amp;nbsp; &amp;nbsp; &amp;nbsp; &amp;nbsp; &amp;nbsp; lcd sda&lt;/div&gt;&lt;div&gt;P4.7&amp;nbsp; &amp;nbsp; &amp;nbsp; &amp;nbsp; &amp;nbsp; &amp;nbsp; &amp;nbsp; &amp;nbsp;led bar scl&lt;/div&gt;&lt;div&gt;P4.6&amp;nbsp; &amp;nbsp; &amp;nbsp; &amp;nbsp; &amp;nbsp; &amp;nbsp; &amp;nbsp; led bar sda&lt;/div&gt;&lt;div&gt;P6.0-6.3&amp;nbsp; &amp;nbsp; &amp;nbsp; &amp;nbsp; &amp;nbsp; &amp;nbsp; &amp;nbsp; rgb led&lt;/div&gt;&lt;div&gt;P1.0&amp;nbsp; &amp;nbsp; &amp;nbsp; &amp;nbsp; &amp;nbsp; &amp;nbsp; &amp;nbsp; &amp;nbsp;ADC input&lt;/div&gt;" style="shape=document;whiteSpace=wrap;html=1;boundedLbl=1;size=0.09688207137005818;align=left;" parent="1" vertex="1">
          <mxGeometry x="29" y="20" width="134" height="144" as="geometry" />
        </mxCell>
        <mxCell id="OZjv875h6kdG-M16T15z-3" value="" style="edgeStyle=orthogonalEdgeStyle;rounded=0;orthogonalLoop=1;jettySize=auto;html=1;" parent="1" source="OZjv875h6kdG-M16T15z-4" target="OZjv875h6kdG-M16T15z-7" edge="1">
          <mxGeometry relative="1" as="geometry" />
        </mxCell>
        <mxCell id="OZjv875h6kdG-M16T15z-4" value="main" style="ellipse;whiteSpace=wrap;html=1;" parent="1" vertex="1">
          <mxGeometry x="226" y="20" width="120" height="55" as="geometry" />
        </mxCell>
        <mxCell id="OZjv875h6kdG-M16T15z-5" value="" style="edgeStyle=orthogonalEdgeStyle;rounded=0;orthogonalLoop=1;jettySize=auto;html=1;" parent="1" source="OZjv875h6kdG-M16T15z-7" edge="1">
          <mxGeometry relative="1" as="geometry">
            <mxPoint x="286" y="215" as="targetPoint" />
          </mxGeometry>
        </mxCell>
        <mxCell id="OZjv875h6kdG-M16T15z-6" value="Yes" style="edgeLabel;html=1;align=center;verticalAlign=middle;resizable=0;points=[];" parent="OZjv875h6kdG-M16T15z-5" vertex="1" connectable="0">
          <mxGeometry x="-0.6064" y="1" relative="1" as="geometry">
            <mxPoint as="offset" />
          </mxGeometry>
        </mxCell>
        <mxCell id="OZjv875h6kdG-M16T15z-7" value="is key pressed?" style="rhombus;whiteSpace=wrap;html=1;" parent="1" vertex="1">
          <mxGeometry x="226" y="105" width="120" height="80" as="geometry" />
        </mxCell>
        <mxCell id="OZjv875h6kdG-M16T15z-8" value="" style="curved=1;endArrow=classic;html=1;rounded=0;exitX=1;exitY=1;exitDx=0;exitDy=0;entryX=1;entryY=0;entryDx=0;entryDy=0;" parent="1" source="OZjv875h6kdG-M16T15z-7" target="OZjv875h6kdG-M16T15z-7" edge="1">
          <mxGeometry width="50" height="50" relative="1" as="geometry">
            <mxPoint x="378" y="183" as="sourcePoint" />
            <mxPoint x="428" y="133" as="targetPoint" />
            <Array as="points">
              <mxPoint x="348" y="176" />
              <mxPoint x="386" y="164" />
              <mxPoint x="373" y="124" />
              <mxPoint x="349" y="116" />
            </Array>
          </mxGeometry>
        </mxCell>
        <mxCell id="OZjv875h6kdG-M16T15z-9" value="No" style="edgeLabel;html=1;align=center;verticalAlign=middle;resizable=0;points=[];" parent="OZjv875h6kdG-M16T15z-8" vertex="1" connectable="0">
          <mxGeometry x="0.2654" y="1" relative="1" as="geometry">
            <mxPoint as="offset" />
          </mxGeometry>
        </mxCell>
        <mxCell id="OZjv875h6kdG-M16T15z-10" value="" style="edgeStyle=orthogonalEdgeStyle;rounded=0;orthogonalLoop=1;jettySize=auto;html=1;" parent="1" source="OZjv875h6kdG-M16T15z-11" target="OZjv875h6kdG-M16T15z-13" edge="1">
          <mxGeometry relative="1" as="geometry" />
        </mxCell>
        <mxCell id="OZjv875h6kdG-M16T15z-11" value="get_key()" style="shape=parallelogram;perimeter=parallelogramPerimeter;whiteSpace=wrap;html=1;fixedSize=1;" parent="1" vertex="1">
          <mxGeometry x="226" y="215" width="120" height="45" as="geometry" />
        </mxCell>
        <mxCell id="OZjv875h6kdG-M16T15z-12" value="" style="edgeStyle=orthogonalEdgeStyle;rounded=0;orthogonalLoop=1;jettySize=auto;html=1;" parent="1" source="OZjv875h6kdG-M16T15z-13" target="OZjv875h6kdG-M16T15z-18" edge="1">
          <mxGeometry relative="1" as="geometry" />
        </mxCell>
        <mxCell id="OZjv875h6kdG-M16T15z-13" value="process_key()" style="shape=parallelogram;perimeter=parallelogramPerimeter;whiteSpace=wrap;html=1;fixedSize=1;" parent="1" vertex="1">
          <mxGeometry x="56" y="215" width="120" height="45" as="geometry" />
        </mxCell>
        <mxCell id="OZjv875h6kdG-M16T15z-14" value="" style="edgeStyle=orthogonalEdgeStyle;rounded=0;orthogonalLoop=1;jettySize=auto;html=1;" parent="1" source="OZjv875h6kdG-M16T15z-18" target="OZjv875h6kdG-M16T15z-20" edge="1">
          <mxGeometry relative="1" as="geometry" />
        </mxCell>
        <mxCell id="OZjv875h6kdG-M16T15z-15" value="Yes" style="edgeLabel;html=1;align=center;verticalAlign=middle;resizable=0;points=[];" parent="OZjv875h6kdG-M16T15z-14" vertex="1" connectable="0">
          <mxGeometry x="0.0794" y="-1" relative="1" as="geometry">
            <mxPoint x="-7" y="-1" as="offset" />
          </mxGeometry>
        </mxCell>
        <mxCell id="OZjv875h6kdG-M16T15z-16" value="" style="edgeStyle=orthogonalEdgeStyle;rounded=0;orthogonalLoop=1;jettySize=auto;html=1;" parent="1" source="OZjv875h6kdG-M16T15z-18" target="OZjv875h6kdG-M16T15z-21" edge="1">
          <mxGeometry relative="1" as="geometry" />
        </mxCell>
        <mxCell id="OZjv875h6kdG-M16T15z-17" value="No" style="edgeLabel;html=1;align=center;verticalAlign=middle;resizable=0;points=[];" parent="OZjv875h6kdG-M16T15z-16" vertex="1" connectable="0">
          <mxGeometry x="-0.3437" y="1" relative="1" as="geometry">
            <mxPoint as="offset" />
          </mxGeometry>
        </mxCell>
        <mxCell id="OZjv875h6kdG-M16T15z-18" value="is locked&lt;div&gt;or unlocking?&lt;/div&gt;" style="rhombus;whiteSpace=wrap;html=1;" parent="1" vertex="1">
          <mxGeometry x="56" y="297" width="120" height="80" as="geometry" />
        </mxCell>
        <mxCell id="OZjv875h6kdG-M16T15z-19" value="" style="edgeStyle=orthogonalEdgeStyle;rounded=0;orthogonalLoop=1;jettySize=auto;html=1;" parent="1" source="OZjv875h6kdG-M16T15z-20" target="OZjv875h6kdG-M16T15z-22" edge="1">
          <mxGeometry relative="1" as="geometry" />
        </mxCell>
        <mxCell id="OZjv875h6kdG-M16T15z-20" value="check_password()" style="shape=parallelogram;perimeter=parallelogramPerimeter;whiteSpace=wrap;html=1;fixedSize=1;" parent="1" vertex="1">
          <mxGeometry x="226" y="314.5" width="120" height="45" as="geometry" />
        </mxCell>
        <mxCell id="OZjv875h6kdG-M16T15z-21" value="update status, pattern, cursor, period, etc" style="rounded=0;whiteSpace=wrap;html=1;" parent="1" vertex="1">
          <mxGeometry x="56" y="415" width="120" height="45" as="geometry" />
        </mxCell>
        <mxCell id="OZjv875h6kdG-M16T15z-22" value="update status" style="rounded=0;whiteSpace=wrap;html=1;" parent="1" vertex="1">
          <mxGeometry x="226" y="415" width="120" height="45" as="geometry" />
        </mxCell>
        <mxCell id="OZjv875h6kdG-M16T15z-23" value="" style="edgeStyle=orthogonalEdgeStyle;rounded=0;orthogonalLoop=1;jettySize=auto;html=1;entryX=0;entryY=0.5;entryDx=0;entryDy=0;" parent="1" target="OZjv875h6kdG-M16T15z-26" edge="1">
          <mxGeometry relative="1" as="geometry">
            <mxPoint x="116" y="460" as="sourcePoint" />
            <Array as="points">
              <mxPoint x="116" y="522" />
            </Array>
          </mxGeometry>
        </mxCell>
        <mxCell id="OZjv875h6kdG-M16T15z-24" value="" style="edgeStyle=orthogonalEdgeStyle;rounded=0;orthogonalLoop=1;jettySize=auto;html=1;entryX=1;entryY=0.5;entryDx=0;entryDy=0;" parent="1" target="OZjv875h6kdG-M16T15z-26" edge="1">
          <mxGeometry relative="1" as="geometry">
            <mxPoint x="286" y="460" as="sourcePoint" />
            <Array as="points">
              <mxPoint x="286" y="523" />
            </Array>
          </mxGeometry>
        </mxCell>
        <mxCell id="OZjv875h6kdG-M16T15z-25" value="" style="edgeStyle=orthogonalEdgeStyle;rounded=0;orthogonalLoop=1;jettySize=auto;html=1;" parent="1" source="OZjv875h6kdG-M16T15z-26" target="OZjv875h6kdG-M16T15z-28" edge="1">
          <mxGeometry relative="1" as="geometry" />
        </mxCell>
        <mxCell id="OZjv875h6kdG-M16T15z-26" value="update_rgb_led()" style="shape=parallelogram;perimeter=parallelogramPerimeter;whiteSpace=wrap;html=1;fixedSize=1;" parent="1" vertex="1">
          <mxGeometry x="136" y="500" width="120" height="45" as="geometry" />
        </mxCell>
        <mxCell id="OZjv875h6kdG-M16T15z-27" value="" style="edgeStyle=orthogonalEdgeStyle;rounded=0;orthogonalLoop=1;jettySize=auto;html=1;" parent="1" source="OZjv875h6kdG-M16T15z-28" target="OZjv875h6kdG-M16T15z-29" edge="1">
          <mxGeometry relative="1" as="geometry" />
        </mxCell>
        <mxCell id="OZjv875h6kdG-M16T15z-28" value="i2c_write()" style="shape=parallelogram;perimeter=parallelogramPerimeter;whiteSpace=wrap;html=1;fixedSize=1;" parent="1" vertex="1">
          <mxGeometry x="136" y="585" width="120" height="45" as="geometry" />
        </mxCell>
        <mxCell id="OZjv875h6kdG-M16T15z-29" value="return" style="ellipse;whiteSpace=wrap;html=1;" parent="1" vertex="1">
          <mxGeometry x="136" y="670" width="120" height="55" as="geometry" />
        </mxCell>
        <mxCell id="OZjv875h6kdG-M16T15z-30" value="" style="edgeStyle=orthogonalEdgeStyle;rounded=0;orthogonalLoop=1;jettySize=auto;html=1;" parent="1" source="OZjv875h6kdG-M16T15z-31" target="OZjv875h6kdG-M16T15z-33" edge="1">
          <mxGeometry relative="1" as="geometry">
            <Array as="points">
              <mxPoint x="593" y="48" />
              <mxPoint x="593" y="48" />
            </Array>
          </mxGeometry>
        </mxCell>
        <mxCell id="OZjv875h6kdG-M16T15z-31" value="&lt;b&gt;LED BAR SLAVE INIT:&lt;/b&gt;&lt;div&gt;P1.0-P1.1&lt;span style=&quot;white-space: pre;&quot;&gt;&#x9;&lt;/span&gt;&amp;nbsp; &amp;nbsp;&amp;nbsp;led bar&lt;/div&gt;&lt;div&gt;P1.4-P1.7&amp;nbsp; &amp;nbsp; &amp;nbsp; &amp;nbsp; &amp;nbsp; &amp;nbsp; led bar&lt;/div&gt;&lt;div&gt;P2.6-P2.7&amp;nbsp; &amp;nbsp; &amp;nbsp; &amp;nbsp; &amp;nbsp; &amp;nbsp; led bar&lt;/div&gt;&lt;div&gt;P1.3&lt;span style=&quot;white-space: pre;&quot;&gt;&#x9;&lt;/span&gt;&lt;span style=&quot;white-space: pre;&quot;&gt;&#x9;&lt;/span&gt;&lt;span style=&quot;white-space: pre;&quot;&gt;&#x9;&lt;/span&gt;&lt;span style=&quot;white-space: pre;&quot;&gt;&#x9;&lt;/span&gt;&amp;nbsp; scl&lt;/div&gt;&lt;div&gt;P1.2&amp;nbsp;&lt;span style=&quot;white-space: pre;&quot;&gt;&#x9;&lt;/span&gt;&lt;span style=&quot;white-space: pre;&quot;&gt;&#x9;&lt;/span&gt;&amp;nbsp; &amp;nbsp; &amp;nbsp; &amp;nbsp; &amp;nbsp;sda&lt;/div&gt;&lt;div&gt;P2.0&amp;nbsp; &amp;nbsp; &amp;nbsp; &amp;nbsp; &amp;nbsp; &amp;nbsp; &amp;nbsp; &amp;nbsp; status led&lt;/div&gt;" style="shape=document;whiteSpace=wrap;html=1;boundedLbl=1;size=0.09688207137005818;align=left;" parent="1" vertex="1">
          <mxGeometry x="447" y="20" width="134" height="119" as="geometry" />
        </mxCell>
        <mxCell id="OZjv875h6kdG-M16T15z-32" value="" style="edgeStyle=orthogonalEdgeStyle;rounded=0;orthogonalLoop=1;jettySize=auto;html=1;" parent="1" source="OZjv875h6kdG-M16T15z-33" target="OZjv875h6kdG-M16T15z-35" edge="1">
          <mxGeometry relative="1" as="geometry" />
        </mxCell>
        <mxCell id="OZjv875h6kdG-M16T15z-33" value="main" style="ellipse;whiteSpace=wrap;html=1;" parent="1" vertex="1">
          <mxGeometry x="638" y="20" width="120" height="55" as="geometry" />
        </mxCell>
        <mxCell id="OZjv875h6kdG-M16T15z-34" value="" style="edgeStyle=orthogonalEdgeStyle;rounded=0;orthogonalLoop=1;jettySize=auto;html=1;" parent="1" source="OZjv875h6kdG-M16T15z-35" target="OZjv875h6kdG-M16T15z-39" edge="1">
          <mxGeometry relative="1" as="geometry" />
        </mxCell>
        <mxCell id="OZjv875h6kdG-M16T15z-35" value="i2c transmission?" style="rhombus;whiteSpace=wrap;html=1;" parent="1" vertex="1">
          <mxGeometry x="638" y="105" width="120" height="80" as="geometry" />
        </mxCell>
        <mxCell id="OZjv875h6kdG-M16T15z-36" value="" style="curved=1;endArrow=classic;html=1;rounded=0;exitX=1;exitY=1;exitDx=0;exitDy=0;entryX=1;entryY=0;entryDx=0;entryDy=0;" parent="1" edge="1">
          <mxGeometry width="50" height="50" relative="1" as="geometry">
            <mxPoint x="731" y="164" as="sourcePoint" />
            <mxPoint x="731" y="124" as="targetPoint" />
            <Array as="points">
              <mxPoint x="763" y="175" />
              <mxPoint x="801" y="163" />
              <mxPoint x="788" y="123" />
              <mxPoint x="764" y="115" />
            </Array>
          </mxGeometry>
        </mxCell>
        <mxCell id="OZjv875h6kdG-M16T15z-37" value="No" style="edgeLabel;html=1;align=center;verticalAlign=middle;resizable=0;points=[];" parent="OZjv875h6kdG-M16T15z-36" vertex="1" connectable="0">
          <mxGeometry x="0.2654" y="1" relative="1" as="geometry">
            <mxPoint as="offset" />
          </mxGeometry>
        </mxCell>
        <mxCell id="OZjv875h6kdG-M16T15z-38" value="" style="edgeStyle=orthogonalEdgeStyle;rounded=0;orthogonalLoop=1;jettySize=auto;html=1;" parent="1" source="OZjv875h6kdG-M16T15z-39" target="OZjv875h6kdG-M16T15z-41" edge="1">
          <mxGeometry relative="1" as="geometry" />
        </mxCell>
        <mxCell id="OZjv875h6kdG-M16T15z-39" value="process_i2c_data()" style="shape=parallelogram;perimeter=parallelogramPerimeter;whiteSpace=wrap;html=1;fixedSize=1;" parent="1" vertex="1">
          <mxGeometry x="638" y="215" width="120" height="45" as="geometry" />
        </mxCell>
        <mxCell id="OZjv875h6kdG-M16T15z-40" value="" style="edgeStyle=orthogonalEdgeStyle;rounded=0;orthogonalLoop=1;jettySize=auto;html=1;" parent="1" source="OZjv875h6kdG-M16T15z-41" target="OZjv875h6kdG-M16T15z-42" edge="1">
          <mxGeometry relative="1" as="geometry" />
        </mxCell>
        <mxCell id="OZjv875h6kdG-M16T15z-41" value="update_led_bar()" style="shape=parallelogram;perimeter=parallelogramPerimeter;whiteSpace=wrap;html=1;fixedSize=1;" parent="1" vertex="1">
          <mxGeometry x="638" y="290" width="120" height="45" as="geometry" />
        </mxCell>
        <mxCell id="OZjv875h6kdG-M16T15z-42" value="return" style="ellipse;whiteSpace=wrap;html=1;" parent="1" vertex="1">
          <mxGeometry x="638" y="365" width="120" height="55" as="geometry" />
        </mxCell>
        <mxCell id="OZjv875h6kdG-M16T15z-43" value="" style="edgeStyle=orthogonalEdgeStyle;rounded=0;orthogonalLoop=1;jettySize=auto;html=1;" parent="1" source="OZjv875h6kdG-M16T15z-44" target="OZjv875h6kdG-M16T15z-46" edge="1">
          <mxGeometry relative="1" as="geometry">
            <Array as="points">
              <mxPoint x="1006" y="48" />
              <mxPoint x="1006" y="48" />
            </Array>
          </mxGeometry>
        </mxCell>
        <mxCell id="OZjv875h6kdG-M16T15z-44" value="&lt;b&gt;LCD SLAVE INIT:&lt;/b&gt;&lt;div&gt;P1.0-P1.1&lt;span style=&quot;white-space: pre;&quot;&gt;&#x9;&lt;/span&gt;&amp;nbsp; &amp;nbsp;&amp;nbsp;led bar&lt;/div&gt;&lt;div&gt;P1.4-P1.7&amp;nbsp; &amp;nbsp; &amp;nbsp; &amp;nbsp; &amp;nbsp; &amp;nbsp; led bar&lt;/div&gt;&lt;div&gt;P2.6-P2.7&amp;nbsp; &amp;nbsp; &amp;nbsp; &amp;nbsp; &amp;nbsp; &amp;nbsp; led bar&lt;/div&gt;&lt;div&gt;P1.3&lt;span style=&quot;white-space: pre;&quot;&gt;&#x9;&lt;/span&gt;&lt;span style=&quot;white-space: pre;&quot;&gt;&#x9;&lt;/span&gt;&lt;span style=&quot;white-space: pre;&quot;&gt;&#x9;&lt;/span&gt;&lt;span style=&quot;white-space: pre;&quot;&gt;&#x9;&lt;/span&gt;&amp;nbsp; scl&lt;/div&gt;&lt;div&gt;P1.2&amp;nbsp;&lt;span style=&quot;white-space: pre;&quot;&gt;&#x9;&lt;/span&gt;&lt;span style=&quot;white-space: pre;&quot;&gt;&#x9;&lt;/span&gt;&amp;nbsp; &amp;nbsp; &amp;nbsp; &amp;nbsp; &amp;nbsp;sda&lt;/div&gt;&lt;div&gt;P2.0&amp;nbsp; &amp;nbsp; &amp;nbsp; &amp;nbsp; &amp;nbsp; &amp;nbsp; &amp;nbsp; &amp;nbsp; status led&lt;/div&gt;" style="shape=document;whiteSpace=wrap;html=1;boundedLbl=1;size=0.09688207137005818;align=left;" parent="1" vertex="1">
          <mxGeometry x="860" y="20" width="134" height="119" as="geometry" />
        </mxCell>
        <mxCell id="OZjv875h6kdG-M16T15z-45" value="" style="edgeStyle=orthogonalEdgeStyle;rounded=0;orthogonalLoop=1;jettySize=auto;html=1;" parent="1" source="OZjv875h6kdG-M16T15z-46" target="OZjv875h6kdG-M16T15z-48" edge="1">
          <mxGeometry relative="1" as="geometry" />
        </mxCell>
        <mxCell id="OZjv875h6kdG-M16T15z-46" value="main" style="ellipse;whiteSpace=wrap;html=1;" parent="1" vertex="1">
          <mxGeometry x="1051" y="20" width="120" height="55" as="geometry" />
        </mxCell>
        <mxCell id="zdik4DyjmZ-lXYdx8fjM-7" value="" style="edgeStyle=orthogonalEdgeStyle;rounded=0;orthogonalLoop=1;jettySize=auto;html=1;" edge="1" parent="1" source="OZjv875h6kdG-M16T15z-48" target="zdik4DyjmZ-lXYdx8fjM-2">
          <mxGeometry relative="1" as="geometry" />
        </mxCell>
        <mxCell id="OZjv875h6kdG-M16T15z-48" value="i2c transmission?" style="rhombus;whiteSpace=wrap;html=1;" parent="1" vertex="1">
          <mxGeometry x="1051" y="105" width="120" height="80" as="geometry" />
        </mxCell>
        <mxCell id="OZjv875h6kdG-M16T15z-49" value="" style="curved=1;endArrow=classic;html=1;rounded=0;exitX=1;exitY=1;exitDx=0;exitDy=0;entryX=1;entryY=0;entryDx=0;entryDy=0;" parent="1" edge="1">
          <mxGeometry width="50" height="50" relative="1" as="geometry">
            <mxPoint x="1144" y="164" as="sourcePoint" />
            <mxPoint x="1144" y="124" as="targetPoint" />
            <Array as="points">
              <mxPoint x="1176" y="175" />
              <mxPoint x="1214" y="163" />
              <mxPoint x="1201" y="123" />
              <mxPoint x="1177" y="115" />
            </Array>
          </mxGeometry>
        </mxCell>
        <mxCell id="OZjv875h6kdG-M16T15z-50" value="No" style="edgeLabel;html=1;align=center;verticalAlign=middle;resizable=0;points=[];" parent="OZjv875h6kdG-M16T15z-49" vertex="1" connectable="0">
          <mxGeometry x="0.2654" y="1" relative="1" as="geometry">
            <mxPoint as="offset" />
          </mxGeometry>
        </mxCell>
        <mxCell id="OZjv875h6kdG-M16T15z-52" value="print_pattern()" style="shape=parallelogram;perimeter=parallelogramPerimeter;whiteSpace=wrap;html=1;fixedSize=1;" parent="1" vertex="1">
          <mxGeometry x="1132" y="332" width="120" height="45" as="geometry" />
        </mxCell>
        <mxCell id="OZjv875h6kdG-M16T15z-54" value="print_temp()" style="shape=parallelogram;perimeter=parallelogramPerimeter;whiteSpace=wrap;html=1;fixedSize=1;" parent="1" vertex="1">
          <mxGeometry x="1051" y="436" width="120" height="45" as="geometry" />
        </mxCell>
        <mxCell id="OZjv875h6kdG-M16T15z-55" value="return" style="ellipse;whiteSpace=wrap;html=1;" parent="1" vertex="1">
          <mxGeometry x="1051" y="594" width="120" height="55" as="geometry" />
        </mxCell>
        <mxCell id="zdik4DyjmZ-lXYdx8fjM-2" value="Mode" style="rhombus;whiteSpace=wrap;html=1;" vertex="1" parent="1">
          <mxGeometry x="1051" y="210" width="120" height="80" as="geometry" />
        </mxCell>
        <mxCell id="zdik4DyjmZ-lXYdx8fjM-3" value="print_instructions" style="shape=parallelogram;perimeter=parallelogramPerimeter;whiteSpace=wrap;html=1;fixedSize=1;" vertex="1" parent="1">
          <mxGeometry x="969" y="335" width="120" height="45" as="geometry" />
        </mxCell>
        <mxCell id="zdik4DyjmZ-lXYdx8fjM-5" value="print_n()" style="shape=parallelogram;perimeter=parallelogramPerimeter;whiteSpace=wrap;html=1;fixedSize=1;" vertex="1" parent="1">
          <mxGeometry x="1051" y="509" width="120" height="45" as="geometry" />
        </mxCell>
        <mxCell id="zdik4DyjmZ-lXYdx8fjM-11" value="" style="endArrow=classic;html=1;rounded=0;exitX=1;exitY=1;exitDx=0;exitDy=0;entryX=0.5;entryY=0;entryDx=0;entryDy=0;" edge="1" parent="1" source="zdik4DyjmZ-lXYdx8fjM-2" target="OZjv875h6kdG-M16T15z-52">
          <mxGeometry width="50" height="50" relative="1" as="geometry">
            <mxPoint x="608" y="534" as="sourcePoint" />
            <mxPoint x="644" y="307" as="targetPoint" />
          </mxGeometry>
        </mxCell>
        <mxCell id="zdik4DyjmZ-lXYdx8fjM-12" value="" style="endArrow=classic;html=1;rounded=0;exitX=0;exitY=1;exitDx=0;exitDy=0;entryX=0.5;entryY=0;entryDx=0;entryDy=0;" edge="1" parent="1" source="zdik4DyjmZ-lXYdx8fjM-2" target="zdik4DyjmZ-lXYdx8fjM-3">
          <mxGeometry width="50" height="50" relative="1" as="geometry">
            <mxPoint x="594" y="357" as="sourcePoint" />
            <mxPoint x="644" y="307" as="targetPoint" />
          </mxGeometry>
        </mxCell>
        <mxCell id="zdik4DyjmZ-lXYdx8fjM-13" value="" style="endArrow=classic;html=1;rounded=0;exitX=0.444;exitY=0.978;exitDx=0;exitDy=0;exitPerimeter=0;entryX=0.25;entryY=0;entryDx=0;entryDy=0;" edge="1" parent="1" source="zdik4DyjmZ-lXYdx8fjM-3" target="OZjv875h6kdG-M16T15z-54">
          <mxGeometry width="50" height="50" relative="1" as="geometry">
            <mxPoint x="594" y="357" as="sourcePoint" />
            <mxPoint x="644" y="307" as="targetPoint" />
          </mxGeometry>
        </mxCell>
        <mxCell id="zdik4DyjmZ-lXYdx8fjM-14" value="" style="endArrow=classic;html=1;rounded=0;exitX=0.5;exitY=1;exitDx=0;exitDy=0;" edge="1" parent="1" source="OZjv875h6kdG-M16T15z-52" target="OZjv875h6kdG-M16T15z-54">
          <mxGeometry width="50" height="50" relative="1" as="geometry">
            <mxPoint x="594" y="357" as="sourcePoint" />
            <mxPoint x="644" y="307" as="targetPoint" />
          </mxGeometry>
        </mxCell>
        <mxCell id="zdik4DyjmZ-lXYdx8fjM-15" value="" style="endArrow=classic;html=1;rounded=0;exitX=0.5;exitY=1;exitDx=0;exitDy=0;entryX=0.5;entryY=0;entryDx=0;entryDy=0;" edge="1" parent="1" source="OZjv875h6kdG-M16T15z-54" target="zdik4DyjmZ-lXYdx8fjM-5">
          <mxGeometry width="50" height="50" relative="1" as="geometry">
            <mxPoint x="594" y="357" as="sourcePoint" />
            <mxPoint x="644" y="307" as="targetPoint" />
          </mxGeometry>
        </mxCell>
        <mxCell id="zdik4DyjmZ-lXYdx8fjM-16" value="" style="endArrow=classic;html=1;rounded=0;exitX=0.5;exitY=1;exitDx=0;exitDy=0;entryX=0.5;entryY=0;entryDx=0;entryDy=0;" edge="1" parent="1" source="zdik4DyjmZ-lXYdx8fjM-5" target="OZjv875h6kdG-M16T15z-55">
          <mxGeometry width="50" height="50" relative="1" as="geometry">
            <mxPoint x="594" y="357" as="sourcePoint" />
            <mxPoint x="644" y="307" as="targetPoint" />
          </mxGeometry>
        </mxCell>
      </root>
    </mxGraphModel>
  </diagram>
</mxfile>
